<?xml version="1.0" encoding="UTF-8" standalone="no"?>
<!DOCTYPE svg PUBLIC "-//W3C//DTD SVG 1.1//EN"
 "http://www.w3.org/Graphics/SVG/1.1/DTD/svg11.dtd">
<!-- Generated by graphviz version 2.47.0 (20210316.0004)
 -->
<!-- Title: dependencies Pages: 1 -->
<svg width="508pt" height="284pt"
 viewBox="0.00 0.00 508.00 284.00" xmlns="http://www.w3.org/2000/svg" xmlns:xlink="http://www.w3.org/1999/xlink">
<g id="graph0" class="graph" transform="scale(1 1) rotate(0) translate(4 280)">
<title>dependencies</title>
<polygon fill="white" stroke="transparent" points="-4,4 -4,-280 504,-280 504,4 -4,4"/>
<text text-anchor="start" x="229.01" y="-42.4" font-family="Times-12" font-weight="bold" font-size="14.00">Legend</text>
<polygon fill="#ffffb3" stroke="transparent" points="16,-10 16,-30 36,-30 36,-10 16,-10"/>
<text text-anchor="start" x="39.63" y="-15.4" font-family="Times-12" font-size="14.00"> &#160;Declarations</text>
<polygon fill="#8dd3c7" stroke="transparent" points="129,-10 129,-30 149,-30 149,-10 129,-10"/>
<text text-anchor="start" x="152.73" y="-15.4" font-family="Times-12" font-size="14.00"> &#160;Module</text>
<polygon fill="#80b1d3" stroke="transparent" points="215,-10 215,-30 235,-30 235,-10 215,-10"/>
<text text-anchor="start" x="238.78" y="-15.4" font-family="Times-12" font-size="14.00"> &#160;Bootstrap</text>
<polygon fill="#fdb462" stroke="transparent" points="312,-10 312,-30 332,-30 332,-10 312,-10"/>
<text text-anchor="start" x="335.67" y="-15.4" font-family="Times-12" font-size="14.00"> &#160;Providers</text>
<polygon fill="#fb8072" stroke="transparent" points="408,-10 408,-30 428,-30 428,-10 408,-10"/>
<text text-anchor="start" x="431.73" y="-15.4" font-family="Times-12" font-size="14.00"> &#160;Exports</text>
<g id="clust1" class="cluster">
<title>cluster_HlmFormFieldModule</title>
<polygon fill="none" stroke="black" stroke-dasharray="1,5" points="8,-70 8,-268 492,-268 492,-70 8,-70"/>
</g>
<g id="clust3" class="cluster">
<title>cluster_HlmFormFieldModule_imports</title>
<polygon fill="none" stroke="black" points="21,-78 21,-130 479,-130 479,-78 21,-78"/>
</g>
<g id="clust4" class="cluster">
<title>cluster_HlmFormFieldModule_exports</title>
<polygon fill="none" stroke="black" points="16,-208 16,-260 484,-260 484,-208 16,-208"/>
</g>
<!-- HlmErrorDirective -->
<g id="node1" class="node">
<title>HlmErrorDirective</title>
<polygon fill="#8dd3c7" stroke="black" points="471.01,-122 468.01,-126 447.01,-126 444.01,-122 348.99,-122 348.99,-86 471.01,-86 471.01,-122"/>
<text text-anchor="middle" x="410" y="-99.8" font-family="Times,serif" font-size="14.00">HlmErrorDirective</text>
</g>
<!-- HlmFormFieldModule -->
<g id="node4" class="node">
<title>HlmFormFieldModule</title>
<polygon fill="#8dd3c7" stroke="black" points="319.55,-187 316.55,-191 295.55,-191 292.55,-187 176.45,-187 176.45,-151 319.55,-151 319.55,-187"/>
<text text-anchor="middle" x="248" y="-164.8" font-family="Times,serif" font-size="14.00">HlmFormFieldModule</text>
</g>
<!-- HlmErrorDirective&#45;&gt;HlmFormFieldModule -->
<g id="edge1" class="edge">
<title>HlmErrorDirective&#45;&gt;HlmFormFieldModule</title>
<path fill="none" stroke="black" d="M430.83,-122.02C430.83,-139.37 430.83,-163 430.83,-163 430.83,-163 329.74,-163 329.74,-163"/>
<polygon fill="black" stroke="black" points="329.74,-159.5 319.74,-163 329.74,-166.5 329.74,-159.5"/>
</g>
<!-- HlmFormFieldComponent -->
<g id="node2" class="node">
<title>HlmFormFieldComponent</title>
<polygon fill="#8dd3c7" stroke="black" points="330.83,-122 327.83,-126 306.83,-126 303.83,-122 165.17,-122 165.17,-86 330.83,-86 330.83,-122"/>
<text text-anchor="middle" x="248" y="-99.8" font-family="Times,serif" font-size="14.00">HlmFormFieldComponent</text>
</g>
<!-- HlmFormFieldComponent&#45;&gt;HlmFormFieldModule -->
<g id="edge2" class="edge">
<title>HlmFormFieldComponent&#45;&gt;HlmFormFieldModule</title>
<path fill="none" stroke="black" d="M248,-122.11C248,-122.11 248,-140.99 248,-140.99"/>
<polygon fill="black" stroke="black" points="244.5,-140.99 248,-150.99 251.5,-140.99 244.5,-140.99"/>
</g>
<!-- HlmHintDirective -->
<g id="node3" class="node">
<title>HlmHintDirective</title>
<polygon fill="#8dd3c7" stroke="black" points="146.86,-122 143.86,-126 122.86,-126 119.86,-122 29.14,-122 29.14,-86 146.86,-86 146.86,-122"/>
<text text-anchor="middle" x="88" y="-99.8" font-family="Times,serif" font-size="14.00">HlmHintDirective</text>
</g>
<!-- HlmHintDirective&#45;&gt;HlmFormFieldModule -->
<g id="edge3" class="edge">
<title>HlmHintDirective&#45;&gt;HlmFormFieldModule</title>
<path fill="none" stroke="black" d="M106.81,-122.02C106.81,-139.37 106.81,-163 106.81,-163 106.81,-163 166.16,-163 166.16,-163"/>
<polygon fill="black" stroke="black" points="166.16,-166.5 176.16,-163 166.16,-159.5 166.16,-166.5"/>
</g>
<!-- HlmErrorDirective  -->
<g id="node5" class="node">
<title>HlmErrorDirective </title>
<polygon fill="#fb8072" stroke="black" points="476.01,-252 349.99,-252 349.99,-216 476.01,-216 476.01,-252"/>
<text text-anchor="middle" x="413" y="-229.8" font-family="Times,serif" font-size="14.00">HlmErrorDirective </text>
</g>
<!-- HlmFormFieldModule&#45;&gt;HlmErrorDirective  -->
<g id="edge4" class="edge">
<title>HlmFormFieldModule&#45;&gt;HlmErrorDirective </title>
<path fill="none" stroke="black" stroke-dasharray="5,2" d="M319.63,-175C355.09,-175 390.42,-175 390.42,-175 390.42,-175 390.42,-205.98 390.42,-205.98"/>
<polygon fill="black" stroke="black" points="386.92,-205.98 390.42,-215.98 393.92,-205.98 386.92,-205.98"/>
</g>
<!-- HlmFormFieldComponent  -->
<g id="node6" class="node">
<title>HlmFormFieldComponent </title>
<polygon fill="#fb8072" stroke="black" points="332.33,-252 163.67,-252 163.67,-216 332.33,-216 332.33,-252"/>
<text text-anchor="middle" x="248" y="-229.8" font-family="Times,serif" font-size="14.00">HlmFormFieldComponent </text>
</g>
<!-- HlmFormFieldModule&#45;&gt;HlmFormFieldComponent  -->
<g id="edge5" class="edge">
<title>HlmFormFieldModule&#45;&gt;HlmFormFieldComponent </title>
<path fill="none" stroke="black" stroke-dasharray="5,2" d="M248,-187.11C248,-187.11 248,-205.99 248,-205.99"/>
<polygon fill="black" stroke="black" points="244.5,-205.99 248,-215.99 251.5,-205.99 244.5,-205.99"/>
</g>
<!-- HlmHintDirective  -->
<g id="node7" class="node">
<title>HlmHintDirective </title>
<polygon fill="#fb8072" stroke="black" points="145.86,-252 24.14,-252 24.14,-216 145.86,-216 145.86,-252"/>
<text text-anchor="middle" x="85" y="-229.8" font-family="Times,serif" font-size="14.00">HlmHintDirective </text>
</g>
<!-- HlmFormFieldModule&#45;&gt;HlmHintDirective  -->
<g id="edge6" class="edge">
<title>HlmFormFieldModule&#45;&gt;HlmHintDirective </title>
<path fill="none" stroke="black" stroke-dasharray="5,2" d="M176.32,-175C126.11,-175 67.94,-175 67.94,-175 67.94,-175 67.94,-205.98 67.94,-205.98"/>
<polygon fill="black" stroke="black" points="64.44,-205.98 67.94,-215.98 71.44,-205.98 64.44,-205.98"/>
</g>
</g>
</svg>
