<?xml version="1.0" encoding="UTF-8" standalone="no"?>
<!DOCTYPE svg PUBLIC "-//W3C//DTD SVG 1.1//EN"
 "http://www.w3.org/Graphics/SVG/1.1/DTD/svg11.dtd">
<!-- Generated by graphviz version 2.47.0 (20210316.0004)
 -->
<!-- Title: dependencies Pages: 1 -->
<svg width="1948pt" height="284pt"
 viewBox="0.00 0.00 1948.00 284.00" xmlns="http://www.w3.org/2000/svg" xmlns:xlink="http://www.w3.org/1999/xlink">
<g id="graph0" class="graph" transform="scale(1 1) rotate(0) translate(4 280)">
<title>dependencies</title>
<polygon fill="white" stroke="transparent" points="-4,4 -4,-280 1944,-280 1944,4 -4,4"/>
<text text-anchor="start" x="949.01" y="-42.4" font-family="Times-12" font-weight="bold" font-size="14.00">Legend</text>
<polygon fill="#ffffb3" stroke="transparent" points="736,-10 736,-30 756,-30 756,-10 736,-10"/>
<text text-anchor="start" x="759.63" y="-15.4" font-family="Times-12" font-size="14.00"> &#160;Declarations</text>
<polygon fill="#8dd3c7" stroke="transparent" points="849,-10 849,-30 869,-30 869,-10 849,-10"/>
<text text-anchor="start" x="872.73" y="-15.4" font-family="Times-12" font-size="14.00"> &#160;Module</text>
<polygon fill="#80b1d3" stroke="transparent" points="935,-10 935,-30 955,-30 955,-10 935,-10"/>
<text text-anchor="start" x="958.78" y="-15.4" font-family="Times-12" font-size="14.00"> &#160;Bootstrap</text>
<polygon fill="#fdb462" stroke="transparent" points="1032,-10 1032,-30 1052,-30 1052,-10 1032,-10"/>
<text text-anchor="start" x="1055.67" y="-15.4" font-family="Times-12" font-size="14.00"> &#160;Providers</text>
<polygon fill="#fb8072" stroke="transparent" points="1128,-10 1128,-30 1148,-30 1148,-10 1128,-10"/>
<text text-anchor="start" x="1151.73" y="-15.4" font-family="Times-12" font-size="14.00"> &#160;Exports</text>
<g id="clust1" class="cluster">
<title>cluster_HlmMenuItemModule</title>
<polygon fill="none" stroke="black" stroke-dasharray="1,5" points="8,-70 8,-268 1932,-268 1932,-70 8,-70"/>
</g>
<g id="clust4" class="cluster">
<title>cluster_HlmMenuItemModule_exports</title>
<polygon fill="none" stroke="black" points="16,-208 16,-260 1924,-260 1924,-208 16,-208"/>
</g>
<g id="clust3" class="cluster">
<title>cluster_HlmMenuItemModule_imports</title>
<polygon fill="none" stroke="black" points="32,-78 32,-130 1908,-130 1908,-78 32,-78"/>
</g>
<!-- HlmMenuGroupComponent -->
<g id="node1" class="node">
<title>HlmMenuGroupComponent</title>
<polygon fill="#8dd3c7" stroke="black" points="1900.15,-122 1897.15,-126 1876.15,-126 1873.15,-122 1725.85,-122 1725.85,-86 1900.15,-86 1900.15,-122"/>
<text text-anchor="middle" x="1813" y="-99.8" font-family="Times,serif" font-size="14.00">HlmMenuGroupComponent</text>
</g>
<!-- HlmMenuItemModule -->
<g id="node10" class="node">
<title>HlmMenuItemModule</title>
<polygon fill="#8dd3c7" stroke="black" points="1077.25,-187 1074.25,-191 1053.25,-191 1050.25,-187 934.75,-187 934.75,-151 1077.25,-151 1077.25,-187"/>
<text text-anchor="middle" x="1006" y="-164.8" font-family="Times,serif" font-size="14.00">HlmMenuItemModule</text>
</g>
<!-- HlmMenuGroupComponent&#45;&gt;HlmMenuItemModule -->
<g id="edge1" class="edge">
<title>HlmMenuGroupComponent&#45;&gt;HlmMenuItemModule</title>
<path fill="none" stroke="black" d="M1731.8,-122.22C1731.8,-140.83 1731.8,-167 1731.8,-167 1731.8,-167 1087.58,-167 1087.58,-167"/>
<polygon fill="black" stroke="black" points="1087.58,-163.5 1077.58,-167 1087.58,-170.5 1087.58,-163.5"/>
</g>
<!-- HlmMenuItemCheckComponent -->
<g id="node2" class="node">
<title>HlmMenuItemCheckComponent</title>
<polygon fill="#8dd3c7" stroke="black" points="1708.3,-122 1705.3,-126 1684.3,-126 1681.3,-122 1507.7,-122 1507.7,-86 1708.3,-86 1708.3,-122"/>
<text text-anchor="middle" x="1608" y="-99.8" font-family="Times,serif" font-size="14.00">HlmMenuItemCheckComponent</text>
</g>
<!-- HlmMenuItemCheckComponent&#45;&gt;HlmMenuItemModule -->
<g id="edge2" class="edge">
<title>HlmMenuItemCheckComponent&#45;&gt;HlmMenuItemModule</title>
<path fill="none" stroke="black" d="M1511.97,-122.02C1511.97,-139.37 1511.97,-163 1511.97,-163 1511.97,-163 1087.42,-163 1087.42,-163"/>
<polygon fill="black" stroke="black" points="1087.42,-159.5 1077.42,-163 1087.42,-166.5 1087.42,-159.5"/>
</g>
<!-- HlmMenuItemCheckboxDirective -->
<g id="node3" class="node">
<title>HlmMenuItemCheckboxDirective</title>
<polygon fill="#8dd3c7" stroke="black" points="1490.05,-122 1487.05,-126 1466.05,-126 1463.05,-122 1281.95,-122 1281.95,-86 1490.05,-86 1490.05,-122"/>
<text text-anchor="middle" x="1386" y="-99.8" font-family="Times,serif" font-size="14.00">HlmMenuItemCheckboxDirective</text>
</g>
<!-- HlmMenuItemCheckboxDirective&#45;&gt;HlmMenuItemModule -->
<g id="edge3" class="edge">
<title>HlmMenuItemCheckboxDirective&#45;&gt;HlmMenuItemModule</title>
<path fill="none" stroke="black" d="M1422.09,-122.01C1422.09,-138.05 1422.09,-159 1422.09,-159 1422.09,-159 1087.53,-159 1087.53,-159"/>
<polygon fill="black" stroke="black" points="1087.53,-155.5 1077.53,-159 1087.53,-162.5 1087.53,-155.5"/>
</g>
<!-- HlmMenuItemDirective -->
<g id="node4" class="node">
<title>HlmMenuItemDirective</title>
<polygon fill="#8dd3c7" stroke="black" points="1263.79,-122 1260.79,-126 1239.79,-126 1236.79,-122 1112.21,-122 1112.21,-86 1263.79,-86 1263.79,-122"/>
<text text-anchor="middle" x="1188" y="-99.8" font-family="Times,serif" font-size="14.00">HlmMenuItemDirective</text>
</g>
<!-- HlmMenuItemDirective&#45;&gt;HlmMenuItemModule -->
<g id="edge4" class="edge">
<title>HlmMenuItemDirective&#45;&gt;HlmMenuItemModule</title>
<path fill="none" stroke="black" d="M1213.63,-122.12C1213.63,-136.78 1213.63,-155 1213.63,-155 1213.63,-155 1087.45,-155 1087.45,-155"/>
<polygon fill="black" stroke="black" points="1087.45,-151.5 1077.45,-155 1087.45,-158.5 1087.45,-151.5"/>
</g>
<!-- HlmMenuItemIconDirective -->
<g id="node5" class="node">
<title>HlmMenuItemIconDirective</title>
<polygon fill="#8dd3c7" stroke="black" points="1094.16,-122 1091.16,-126 1070.16,-126 1067.16,-122 917.84,-122 917.84,-86 1094.16,-86 1094.16,-122"/>
<text text-anchor="middle" x="1006" y="-99.8" font-family="Times,serif" font-size="14.00">HlmMenuItemIconDirective</text>
</g>
<!-- HlmMenuItemIconDirective&#45;&gt;HlmMenuItemModule -->
<g id="edge5" class="edge">
<title>HlmMenuItemIconDirective&#45;&gt;HlmMenuItemModule</title>
<path fill="none" stroke="black" d="M1006,-122.11C1006,-122.11 1006,-140.99 1006,-140.99"/>
<polygon fill="black" stroke="black" points="1002.5,-140.99 1006,-150.99 1009.5,-140.99 1002.5,-140.99"/>
</g>
<!-- HlmMenuItemRadioComponent -->
<g id="node6" class="node">
<title>HlmMenuItemRadioComponent</title>
<polygon fill="#8dd3c7" stroke="black" points="899.98,-122 896.98,-126 875.98,-126 872.98,-122 702.02,-122 702.02,-86 899.98,-86 899.98,-122"/>
<text text-anchor="middle" x="801" y="-99.8" font-family="Times,serif" font-size="14.00">HlmMenuItemRadioComponent</text>
</g>
<!-- HlmMenuItemRadioComponent&#45;&gt;HlmMenuItemModule -->
<g id="edge6" class="edge">
<title>HlmMenuItemRadioComponent&#45;&gt;HlmMenuItemModule</title>
<path fill="none" stroke="black" d="M832.5,-122.12C832.5,-136.78 832.5,-155 832.5,-155 832.5,-155 924.68,-155 924.68,-155"/>
<polygon fill="black" stroke="black" points="924.68,-158.5 934.68,-155 924.68,-151.5 924.68,-158.5"/>
</g>
<!-- HlmMenuItemRadioDirective -->
<g id="node7" class="node">
<title>HlmMenuItemRadioDirective</title>
<polygon fill="#8dd3c7" stroke="black" points="684.23,-122 681.23,-126 660.23,-126 657.23,-122 499.77,-122 499.77,-86 684.23,-86 684.23,-122"/>
<text text-anchor="middle" x="592" y="-99.8" font-family="Times,serif" font-size="14.00">HlmMenuItemRadioDirective</text>
</g>
<!-- HlmMenuItemRadioDirective&#45;&gt;HlmMenuItemModule -->
<g id="edge7" class="edge">
<title>HlmMenuItemRadioDirective&#45;&gt;HlmMenuItemModule</title>
<path fill="none" stroke="black" d="M618.62,-122.01C618.62,-138.05 618.62,-159 618.62,-159 618.62,-159 924.5,-159 924.5,-159"/>
<polygon fill="black" stroke="black" points="924.5,-162.5 934.5,-159 924.5,-155.5 924.5,-162.5"/>
</g>
<!-- HlmMenuItemSubIndicatorComponent -->
<g id="node8" class="node">
<title>HlmMenuItemSubIndicatorComponent</title>
<polygon fill="#8dd3c7" stroke="black" points="481.35,-122 478.35,-126 457.35,-126 454.35,-122 244.65,-122 244.65,-86 481.35,-86 481.35,-122"/>
<text text-anchor="middle" x="363" y="-99.8" font-family="Times,serif" font-size="14.00">HlmMenuItemSubIndicatorComponent</text>
</g>
<!-- HlmMenuItemSubIndicatorComponent&#45;&gt;HlmMenuItemModule -->
<g id="edge8" class="edge">
<title>HlmMenuItemSubIndicatorComponent&#45;&gt;HlmMenuItemModule</title>
<path fill="none" stroke="black" d="M476.8,-122.02C476.8,-139.37 476.8,-163 476.8,-163 476.8,-163 924.63,-163 924.63,-163"/>
<polygon fill="black" stroke="black" points="924.63,-166.5 934.63,-163 924.63,-159.5 924.63,-166.5"/>
</g>
<!-- HlmMenuShortcutComponent -->
<g id="node9" class="node">
<title>HlmMenuShortcutComponent</title>
<polygon fill="#8dd3c7" stroke="black" points="226.32,-122 223.32,-126 202.32,-126 199.32,-122 39.68,-122 39.68,-86 226.32,-86 226.32,-122"/>
<text text-anchor="middle" x="133" y="-99.8" font-family="Times,serif" font-size="14.00">HlmMenuShortcutComponent</text>
</g>
<!-- HlmMenuShortcutComponent&#45;&gt;HlmMenuItemModule -->
<g id="edge9" class="edge">
<title>HlmMenuShortcutComponent&#45;&gt;HlmMenuItemModule</title>
<path fill="none" stroke="black" d="M220.03,-122.22C220.03,-140.83 220.03,-167 220.03,-167 220.03,-167 924.52,-167 924.52,-167"/>
<polygon fill="black" stroke="black" points="924.52,-170.5 934.52,-167 924.52,-163.5 924.52,-170.5"/>
</g>
<!-- HlmMenuGroupComponent  -->
<g id="node11" class="node">
<title>HlmMenuGroupComponent </title>
<polygon fill="#fb8072" stroke="black" points="1916.15,-252 1737.85,-252 1737.85,-216 1916.15,-216 1916.15,-252"/>
<text text-anchor="middle" x="1827" y="-229.8" font-family="Times,serif" font-size="14.00">HlmMenuGroupComponent </text>
</g>
<!-- HlmMenuItemModule&#45;&gt;HlmMenuGroupComponent  -->
<g id="edge10" class="edge">
<title>HlmMenuItemModule&#45;&gt;HlmMenuGroupComponent </title>
<path fill="none" stroke="black" stroke-dasharray="5,2" d="M1077.45,-171C1275.86,-171 1819.12,-171 1819.12,-171 1819.12,-171 1819.12,-205.78 1819.12,-205.78"/>
<polygon fill="black" stroke="black" points="1815.63,-205.78 1819.12,-215.78 1822.63,-205.78 1815.63,-205.78"/>
</g>
<!-- HlmMenuItemCheckComponent  -->
<g id="node12" class="node">
<title>HlmMenuItemCheckComponent </title>
<polygon fill="#fb8072" stroke="black" points="1719.8,-252 1516.2,-252 1516.2,-216 1719.8,-216 1719.8,-252"/>
<text text-anchor="middle" x="1618" y="-229.8" font-family="Times,serif" font-size="14.00">HlmMenuItemCheckComponent </text>
</g>
<!-- HlmMenuItemModule&#45;&gt;HlmMenuItemCheckComponent  -->
<g id="edge11" class="edge">
<title>HlmMenuItemModule&#45;&gt;HlmMenuItemCheckComponent </title>
<path fill="none" stroke="black" stroke-dasharray="5,2" d="M1077.31,-175C1237.54,-175 1612.12,-175 1612.12,-175 1612.12,-175 1612.12,-205.98 1612.12,-205.98"/>
<polygon fill="black" stroke="black" points="1608.63,-205.98 1612.12,-215.98 1615.63,-205.98 1608.63,-205.98"/>
</g>
<!-- HlmMenuItemCheckboxDirective  -->
<g id="node13" class="node">
<title>HlmMenuItemCheckboxDirective </title>
<polygon fill="#fb8072" stroke="black" points="1497.55,-252 1286.45,-252 1286.45,-216 1497.55,-216 1497.55,-252"/>
<text text-anchor="middle" x="1392" y="-229.8" font-family="Times,serif" font-size="14.00">HlmMenuItemCheckboxDirective </text>
</g>
<!-- HlmMenuItemModule&#45;&gt;HlmMenuItemCheckboxDirective  -->
<g id="edge12" class="edge">
<title>HlmMenuItemModule&#45;&gt;HlmMenuItemCheckboxDirective </title>
<path fill="none" stroke="black" stroke-dasharray="5,2" d="M1077.3,-179C1179.15,-179 1354.16,-179 1354.16,-179 1354.16,-179 1354.16,-205.99 1354.16,-205.99"/>
<polygon fill="black" stroke="black" points="1350.66,-205.99 1354.16,-215.99 1357.66,-205.99 1350.66,-205.99"/>
</g>
<!-- HlmMenuItemDirective  -->
<g id="node14" class="node">
<title>HlmMenuItemDirective </title>
<polygon fill="#fb8072" stroke="black" points="1268.29,-252 1113.71,-252 1113.71,-216 1268.29,-216 1268.29,-252"/>
<text text-anchor="middle" x="1191" y="-229.8" font-family="Times,serif" font-size="14.00">HlmMenuItemDirective </text>
</g>
<!-- HlmMenuItemModule&#45;&gt;HlmMenuItemDirective  -->
<g id="edge13" class="edge">
<title>HlmMenuItemModule&#45;&gt;HlmMenuItemDirective </title>
<path fill="none" stroke="black" stroke-dasharray="5,2" d="M1077.43,-183C1119.13,-183 1163.62,-183 1163.62,-183 1163.62,-183 1163.62,-205.88 1163.62,-205.88"/>
<polygon fill="black" stroke="black" points="1160.12,-205.88 1163.62,-215.88 1167.12,-205.88 1160.12,-205.88"/>
</g>
<!-- HlmMenuItemIconDirective  -->
<g id="node15" class="node">
<title>HlmMenuItemIconDirective </title>
<polygon fill="#fb8072" stroke="black" points="1095.66,-252 916.34,-252 916.34,-216 1095.66,-216 1095.66,-252"/>
<text text-anchor="middle" x="1006" y="-229.8" font-family="Times,serif" font-size="14.00">HlmMenuItemIconDirective </text>
</g>
<!-- HlmMenuItemModule&#45;&gt;HlmMenuItemIconDirective  -->
<g id="edge14" class="edge">
<title>HlmMenuItemModule&#45;&gt;HlmMenuItemIconDirective </title>
<path fill="none" stroke="black" stroke-dasharray="5,2" d="M1006,-187.11C1006,-187.11 1006,-205.99 1006,-205.99"/>
<polygon fill="black" stroke="black" points="1002.5,-205.99 1006,-215.99 1009.5,-205.99 1002.5,-205.99"/>
</g>
<!-- HlmMenuItemRadioComponent  -->
<g id="node16" class="node">
<title>HlmMenuItemRadioComponent </title>
<polygon fill="#fb8072" stroke="black" points="897.98,-252 696.02,-252 696.02,-216 897.98,-216 897.98,-252"/>
<text text-anchor="middle" x="797" y="-229.8" font-family="Times,serif" font-size="14.00">HlmMenuItemRadioComponent </text>
</g>
<!-- HlmMenuItemModule&#45;&gt;HlmMenuItemRadioComponent  -->
<g id="edge15" class="edge">
<title>HlmMenuItemModule&#45;&gt;HlmMenuItemRadioComponent </title>
<path fill="none" stroke="black" stroke-dasharray="5,2" d="M934.69,-183C864.34,-183 767.25,-183 767.25,-183 767.25,-183 767.25,-205.88 767.25,-205.88"/>
<polygon fill="black" stroke="black" points="763.75,-205.88 767.25,-215.88 770.75,-205.88 763.75,-205.88"/>
</g>
<!-- HlmMenuItemRadioDirective  -->
<g id="node17" class="node">
<title>HlmMenuItemRadioDirective </title>
<polygon fill="#fb8072" stroke="black" points="678.23,-252 489.77,-252 489.77,-216 678.23,-216 678.23,-252"/>
<text text-anchor="middle" x="584" y="-229.8" font-family="Times,serif" font-size="14.00">HlmMenuItemRadioDirective </text>
</g>
<!-- HlmMenuItemModule&#45;&gt;HlmMenuItemRadioDirective  -->
<g id="edge16" class="edge">
<title>HlmMenuItemModule&#45;&gt;HlmMenuItemRadioDirective </title>
<path fill="none" stroke="black" stroke-dasharray="5,2" d="M934.7,-179C808.53,-179 559.13,-179 559.13,-179 559.13,-179 559.13,-205.99 559.13,-205.99"/>
<polygon fill="black" stroke="black" points="555.63,-205.99 559.13,-215.99 562.63,-205.99 555.63,-205.99"/>
</g>
<!-- HlmMenuItemSubIndicatorComponent  -->
<g id="node18" class="node">
<title>HlmMenuItemSubIndicatorComponent </title>
<polygon fill="#fb8072" stroke="black" points="472.35,-252 231.65,-252 231.65,-216 472.35,-216 472.35,-252"/>
<text text-anchor="middle" x="352" y="-229.8" font-family="Times,serif" font-size="14.00">HlmMenuItemSubIndicatorComponent </text>
</g>
<!-- HlmMenuItemModule&#45;&gt;HlmMenuItemSubIndicatorComponent  -->
<g id="edge17" class="edge">
<title>HlmMenuItemModule&#45;&gt;HlmMenuItemSubIndicatorComponent </title>
<path fill="none" stroke="black" stroke-dasharray="5,2" d="M934.53,-175C766.1,-175 358.38,-175 358.38,-175 358.38,-175 358.38,-205.98 358.38,-205.98"/>
<polygon fill="black" stroke="black" points="354.88,-205.98 358.38,-215.98 361.88,-205.98 354.88,-205.98"/>
</g>
<!-- HlmMenuShortcutComponent  -->
<g id="node19" class="node">
<title>HlmMenuShortcutComponent </title>
<polygon fill="#fb8072" stroke="black" points="213.82,-252 24.18,-252 24.18,-216 213.82,-216 213.82,-252"/>
<text text-anchor="middle" x="119" y="-229.8" font-family="Times,serif" font-size="14.00">HlmMenuShortcutComponent </text>
</g>
<!-- HlmMenuItemModule&#45;&gt;HlmMenuShortcutComponent  -->
<g id="edge18" class="edge">
<title>HlmMenuItemModule&#45;&gt;HlmMenuShortcutComponent </title>
<path fill="none" stroke="black" stroke-dasharray="5,2" d="M934.43,-171C724.8,-171 126.88,-171 126.88,-171 126.88,-171 126.88,-205.78 126.88,-205.78"/>
<polygon fill="black" stroke="black" points="123.38,-205.78 126.88,-215.78 130.38,-205.78 123.38,-205.78"/>
</g>
</g>
</svg>
