<?xml version="1.0" encoding="UTF-8" standalone="no"?>
<!DOCTYPE svg PUBLIC "-//W3C//DTD SVG 1.1//EN"
 "http://www.w3.org/Graphics/SVG/1.1/DTD/svg11.dtd">
<!-- Generated by graphviz version 2.47.0 (20210316.0004)
 -->
<!-- Title: dependencies Pages: 1 -->
<svg width="504pt" height="284pt"
 viewBox="0.00 0.00 504.00 284.00" xmlns="http://www.w3.org/2000/svg" xmlns:xlink="http://www.w3.org/1999/xlink">
<g id="graph0" class="graph" transform="scale(1 1) rotate(0) translate(4 280)">
<title>dependencies</title>
<polygon fill="white" stroke="transparent" points="-4,4 -4,-280 500,-280 500,4 -4,4"/>
<text text-anchor="start" x="227.01" y="-42.4" font-family="Times-12" font-weight="bold" font-size="14.00">Legend</text>
<polygon fill="#ffffb3" stroke="transparent" points="14,-10 14,-30 34,-30 34,-10 14,-10"/>
<text text-anchor="start" x="37.63" y="-15.4" font-family="Times-12" font-size="14.00"> &#160;Declarations</text>
<polygon fill="#8dd3c7" stroke="transparent" points="127,-10 127,-30 147,-30 147,-10 127,-10"/>
<text text-anchor="start" x="150.73" y="-15.4" font-family="Times-12" font-size="14.00"> &#160;Module</text>
<polygon fill="#80b1d3" stroke="transparent" points="213,-10 213,-30 233,-30 233,-10 213,-10"/>
<text text-anchor="start" x="236.78" y="-15.4" font-family="Times-12" font-size="14.00"> &#160;Bootstrap</text>
<polygon fill="#fdb462" stroke="transparent" points="310,-10 310,-30 330,-30 330,-10 310,-10"/>
<text text-anchor="start" x="333.67" y="-15.4" font-family="Times-12" font-size="14.00"> &#160;Providers</text>
<polygon fill="#fb8072" stroke="transparent" points="406,-10 406,-30 426,-30 426,-10 406,-10"/>
<text text-anchor="start" x="429.73" y="-15.4" font-family="Times-12" font-size="14.00"> &#160;Exports</text>
<g id="clust1" class="cluster">
<title>cluster_HlmInputModule</title>
<polygon fill="none" stroke="black" stroke-dasharray="1,5" points="82,-70 82,-268 414,-268 414,-70 82,-70"/>
</g>
<g id="clust3" class="cluster">
<title>cluster_HlmInputModule_imports</title>
<polygon fill="none" stroke="black" points="94,-78 94,-130 402,-130 402,-78 94,-78"/>
</g>
<g id="clust4" class="cluster">
<title>cluster_HlmInputModule_exports</title>
<polygon fill="none" stroke="black" points="90,-208 90,-260 406,-260 406,-208 90,-208"/>
</g>
<!-- HlmInputDirective -->
<g id="node1" class="node">
<title>HlmInputDirective</title>
<polygon fill="#8dd3c7" stroke="black" points="394.02,-122 391.02,-126 370.02,-126 367.02,-122 271.98,-122 271.98,-86 394.02,-86 394.02,-122"/>
<text text-anchor="middle" x="333" y="-99.8" font-family="Times,serif" font-size="14.00">HlmInputDirective</text>
</g>
<!-- HlmInputModule -->
<g id="node3" class="node">
<title>HlmInputModule</title>
<polygon fill="#8dd3c7" stroke="black" points="235.99,-187 232.99,-191 211.99,-191 208.99,-187 122.01,-187 122.01,-151 235.99,-151 235.99,-187"/>
<text text-anchor="middle" x="179" y="-164.8" font-family="Times,serif" font-size="14.00">HlmInputModule</text>
</g>
<!-- HlmInputDirective&#45;&gt;HlmInputModule -->
<g id="edge1" class="edge">
<title>HlmInputDirective&#45;&gt;HlmInputModule</title>
<path fill="none" stroke="black" d="M353.5,-122.02C353.5,-139.37 353.5,-163 353.5,-163 353.5,-163 246.14,-163 246.14,-163"/>
<polygon fill="black" stroke="black" points="246.14,-159.5 236.14,-163 246.14,-166.5 246.14,-159.5"/>
</g>
<!-- HlmInputErrorDirective -->
<g id="node2" class="node">
<title>HlmInputErrorDirective</title>
<polygon fill="#8dd3c7" stroke="black" points="254.06,-122 251.06,-126 230.06,-126 227.06,-122 101.94,-122 101.94,-86 254.06,-86 254.06,-122"/>
<text text-anchor="middle" x="178" y="-99.8" font-family="Times,serif" font-size="14.00">HlmInputErrorDirective</text>
</g>
<!-- HlmInputErrorDirective&#45;&gt;HlmInputModule -->
<g id="edge2" class="edge">
<title>HlmInputErrorDirective&#45;&gt;HlmInputModule</title>
<path fill="none" stroke="black" d="M179,-122.11C179,-122.11 179,-140.99 179,-140.99"/>
<polygon fill="black" stroke="black" points="175.5,-140.99 179,-150.99 182.5,-140.99 175.5,-140.99"/>
</g>
<!-- HlmInputDirective  -->
<g id="node4" class="node">
<title>HlmInputDirective </title>
<polygon fill="#fb8072" stroke="black" points="398.02,-252 271.98,-252 271.98,-216 398.02,-216 398.02,-252"/>
<text text-anchor="middle" x="335" y="-229.8" font-family="Times,serif" font-size="14.00">HlmInputDirective </text>
</g>
<!-- HlmInputModule&#45;&gt;HlmInputDirective  -->
<g id="edge3" class="edge">
<title>HlmInputModule&#45;&gt;HlmInputDirective </title>
<path fill="none" stroke="black" stroke-dasharray="5,2" d="M236.11,-175C272.46,-175 312.75,-175 312.75,-175 312.75,-175 312.75,-205.98 312.75,-205.98"/>
<polygon fill="black" stroke="black" points="309.25,-205.98 312.75,-215.98 316.25,-205.98 309.25,-205.98"/>
</g>
<!-- HlmInputErrorDirective  -->
<g id="node5" class="node">
<title>HlmInputErrorDirective </title>
<polygon fill="#fb8072" stroke="black" points="253.56,-252 98.44,-252 98.44,-216 253.56,-216 253.56,-252"/>
<text text-anchor="middle" x="176" y="-229.8" font-family="Times,serif" font-size="14.00">HlmInputErrorDirective </text>
</g>
<!-- HlmInputModule&#45;&gt;HlmInputErrorDirective  -->
<g id="edge4" class="edge">
<title>HlmInputModule&#45;&gt;HlmInputErrorDirective </title>
<path fill="none" stroke="black" stroke-dasharray="5,2" d="M179,-187.11C179,-187.11 179,-205.99 179,-205.99"/>
<polygon fill="black" stroke="black" points="175.5,-205.99 179,-215.99 182.5,-205.99 175.5,-205.99"/>
</g>
</g>
</svg>
