<?xml version="1.0" encoding="UTF-8" standalone="no"?>
<!DOCTYPE svg PUBLIC "-//W3C//DTD SVG 1.1//EN"
 "http://www.w3.org/Graphics/SVG/1.1/DTD/svg11.dtd">
<!-- Generated by graphviz version 2.47.0 (20210316.0004)
 -->
<!-- Title: dependencies Pages: 1 -->
<svg width="504pt" height="284pt"
 viewBox="0.00 0.00 504.00 284.00" xmlns="http://www.w3.org/2000/svg" xmlns:xlink="http://www.w3.org/1999/xlink">
<g id="graph0" class="graph" transform="scale(1 1) rotate(0) translate(4 280)">
<title>dependencies</title>
<polygon fill="white" stroke="transparent" points="-4,4 -4,-280 500,-280 500,4 -4,4"/>
<text text-anchor="start" x="227.01" y="-42.4" font-family="Times-12" font-weight="bold" font-size="14.00">Legend</text>
<polygon fill="#ffffb3" stroke="transparent" points="14,-10 14,-30 34,-30 34,-10 14,-10"/>
<text text-anchor="start" x="37.63" y="-15.4" font-family="Times-12" font-size="14.00"> &#160;Declarations</text>
<polygon fill="#8dd3c7" stroke="transparent" points="127,-10 127,-30 147,-30 147,-10 127,-10"/>
<text text-anchor="start" x="150.73" y="-15.4" font-family="Times-12" font-size="14.00"> &#160;Module</text>
<polygon fill="#80b1d3" stroke="transparent" points="213,-10 213,-30 233,-30 233,-10 213,-10"/>
<text text-anchor="start" x="236.78" y="-15.4" font-family="Times-12" font-size="14.00"> &#160;Bootstrap</text>
<polygon fill="#fdb462" stroke="transparent" points="310,-10 310,-30 330,-30 330,-10 310,-10"/>
<text text-anchor="start" x="333.67" y="-15.4" font-family="Times-12" font-size="14.00"> &#160;Providers</text>
<polygon fill="#fb8072" stroke="transparent" points="406,-10 406,-30 426,-30 426,-10 406,-10"/>
<text text-anchor="start" x="429.73" y="-15.4" font-family="Times-12" font-size="14.00"> &#160;Exports</text>
<g id="clust1" class="cluster">
<title>cluster_HlmToggleGroupModule</title>
<polygon fill="none" stroke="black" stroke-dasharray="1,5" points="69,-70 69,-268 427,-268 427,-70 69,-70"/>
</g>
<g id="clust4" class="cluster">
<title>cluster_HlmToggleGroupModule_exports</title>
<polygon fill="none" stroke="black" points="77,-208 77,-260 419,-260 419,-208 77,-208"/>
</g>
<g id="clust3" class="cluster">
<title>cluster_HlmToggleGroupModule_imports</title>
<polygon fill="none" stroke="black" points="81,-78 81,-130 416,-130 416,-78 81,-78"/>
</g>
<!-- HlmToggleDirective -->
<g id="node1" class="node">
<title>HlmToggleDirective</title>
<polygon fill="#8dd3c7" stroke="black" points="408.13,-122 405.13,-126 384.13,-126 381.13,-122 275.87,-122 275.87,-86 408.13,-86 408.13,-122"/>
<text text-anchor="middle" x="342" y="-99.8" font-family="Times,serif" font-size="14.00">HlmToggleDirective</text>
</g>
<!-- HlmToggleGroupModule -->
<g id="node3" class="node">
<title>HlmToggleGroupModule</title>
<polygon fill="#8dd3c7" stroke="black" points="253.86,-187 250.86,-191 229.86,-191 226.86,-187 94.14,-187 94.14,-151 253.86,-151 253.86,-187"/>
<text text-anchor="middle" x="174" y="-164.8" font-family="Times,serif" font-size="14.00">HlmToggleGroupModule</text>
</g>
<!-- HlmToggleDirective&#45;&gt;HlmToggleGroupModule -->
<g id="edge1" class="edge">
<title>HlmToggleDirective&#45;&gt;HlmToggleGroupModule</title>
<path fill="none" stroke="black" d="M364.1,-122.02C364.1,-139.37 364.1,-163 364.1,-163 364.1,-163 264.07,-163 264.07,-163"/>
<polygon fill="black" stroke="black" points="264.07,-159.5 254.07,-163 264.07,-166.5 264.07,-159.5"/>
</g>
<!-- HlmToggleGroupDirective -->
<g id="node2" class="node">
<title>HlmToggleGroupDirective</title>
<polygon fill="#8dd3c7" stroke="black" points="257.4,-122 254.4,-126 233.4,-126 230.4,-122 88.6,-122 88.6,-86 257.4,-86 257.4,-122"/>
<text text-anchor="middle" x="173" y="-99.8" font-family="Times,serif" font-size="14.00">HlmToggleGroupDirective</text>
</g>
<!-- HlmToggleGroupDirective&#45;&gt;HlmToggleGroupModule -->
<g id="edge2" class="edge">
<title>HlmToggleGroupDirective&#45;&gt;HlmToggleGroupModule</title>
<path fill="none" stroke="black" d="M174,-122.11C174,-122.11 174,-140.99 174,-140.99"/>
<polygon fill="black" stroke="black" points="170.5,-140.99 174,-150.99 177.5,-140.99 170.5,-140.99"/>
</g>
<!-- HlmToggleDirective  -->
<g id="node4" class="node">
<title>HlmToggleDirective </title>
<polygon fill="#fb8072" stroke="black" points="411.13,-252 274.87,-252 274.87,-216 411.13,-216 411.13,-252"/>
<text text-anchor="middle" x="343" y="-229.8" font-family="Times,serif" font-size="14.00">HlmToggleDirective </text>
</g>
<!-- HlmToggleGroupModule&#45;&gt;HlmToggleDirective  -->
<g id="edge3" class="edge">
<title>HlmToggleGroupModule&#45;&gt;HlmToggleDirective </title>
<path fill="none" stroke="black" stroke-dasharray="5,2" d="M254.2,-175C288.1,-175 319.9,-175 319.9,-175 319.9,-175 319.9,-205.98 319.9,-205.98"/>
<polygon fill="black" stroke="black" points="316.4,-205.98 319.9,-215.98 323.4,-205.98 316.4,-205.98"/>
</g>
<!-- HlmToggleGroupDirective  -->
<g id="node5" class="node">
<title>HlmToggleGroupDirective </title>
<polygon fill="#fb8072" stroke="black" points="256.9,-252 85.1,-252 85.1,-216 256.9,-216 256.9,-252"/>
<text text-anchor="middle" x="171" y="-229.8" font-family="Times,serif" font-size="14.00">HlmToggleGroupDirective </text>
</g>
<!-- HlmToggleGroupModule&#45;&gt;HlmToggleGroupDirective  -->
<g id="edge4" class="edge">
<title>HlmToggleGroupModule&#45;&gt;HlmToggleGroupDirective </title>
<path fill="none" stroke="black" stroke-dasharray="5,2" d="M174,-187.11C174,-187.11 174,-205.99 174,-205.99"/>
<polygon fill="black" stroke="black" points="170.5,-205.99 174,-215.99 177.5,-205.99 170.5,-205.99"/>
</g>
</g>
</svg>
