<?xml version="1.0" encoding="UTF-8" standalone="no"?>
<!DOCTYPE svg PUBLIC "-//W3C//DTD SVG 1.1//EN"
 "http://www.w3.org/Graphics/SVG/1.1/DTD/svg11.dtd">
<!-- Generated by graphviz version 2.47.0 (20210316.0004)
 -->
<!-- Title: dependencies Pages: 1 -->
<svg width="582pt" height="284pt"
 viewBox="0.00 0.00 582.00 284.00" xmlns="http://www.w3.org/2000/svg" xmlns:xlink="http://www.w3.org/1999/xlink">
<g id="graph0" class="graph" transform="scale(1 1) rotate(0) translate(4 280)">
<title>dependencies</title>
<polygon fill="white" stroke="transparent" points="-4,4 -4,-280 578,-280 578,4 -4,4"/>
<text text-anchor="start" x="266.01" y="-42.4" font-family="Times-12" font-weight="bold" font-size="14.00">Legend</text>
<polygon fill="#ffffb3" stroke="transparent" points="53,-10 53,-30 73,-30 73,-10 53,-10"/>
<text text-anchor="start" x="76.63" y="-15.4" font-family="Times-12" font-size="14.00"> &#160;Declarations</text>
<polygon fill="#8dd3c7" stroke="transparent" points="166,-10 166,-30 186,-30 186,-10 166,-10"/>
<text text-anchor="start" x="189.73" y="-15.4" font-family="Times-12" font-size="14.00"> &#160;Module</text>
<polygon fill="#80b1d3" stroke="transparent" points="252,-10 252,-30 272,-30 272,-10 252,-10"/>
<text text-anchor="start" x="275.78" y="-15.4" font-family="Times-12" font-size="14.00"> &#160;Bootstrap</text>
<polygon fill="#fdb462" stroke="transparent" points="349,-10 349,-30 369,-30 369,-10 349,-10"/>
<text text-anchor="start" x="372.67" y="-15.4" font-family="Times-12" font-size="14.00"> &#160;Providers</text>
<polygon fill="#fb8072" stroke="transparent" points="445,-10 445,-30 465,-30 465,-10 445,-10"/>
<text text-anchor="start" x="468.73" y="-15.4" font-family="Times-12" font-size="14.00"> &#160;Exports</text>
<g id="clust1" class="cluster">
<title>cluster_HlmRadioGroupModule</title>
<polygon fill="none" stroke="black" stroke-dasharray="1,5" points="8,-70 8,-268 566,-268 566,-70 8,-70"/>
</g>
<g id="clust3" class="cluster">
<title>cluster_HlmRadioGroupModule_imports</title>
<polygon fill="none" stroke="black" points="22,-78 22,-130 552,-130 552,-78 22,-78"/>
</g>
<g id="clust4" class="cluster">
<title>cluster_HlmRadioGroupModule_exports</title>
<polygon fill="none" stroke="black" points="16,-208 16,-260 558,-260 558,-208 16,-208"/>
</g>
<!-- HlmRadioDirective -->
<g id="node1" class="node">
<title>HlmRadioDirective</title>
<polygon fill="#8dd3c7" stroke="black" points="544.41,-122 541.41,-126 520.41,-126 517.41,-122 417.59,-122 417.59,-86 544.41,-86 544.41,-122"/>
<text text-anchor="middle" x="481" y="-99.8" font-family="Times,serif" font-size="14.00">HlmRadioDirective</text>
</g>
<!-- HlmRadioGroupModule -->
<g id="node4" class="node">
<title>HlmRadioGroupModule</title>
<polygon fill="#8dd3c7" stroke="black" points="395.65,-187 392.65,-191 371.65,-191 368.65,-187 242.35,-187 242.35,-151 395.65,-151 395.65,-187"/>
<text text-anchor="middle" x="319" y="-164.8" font-family="Times,serif" font-size="14.00">HlmRadioGroupModule</text>
</g>
<!-- HlmRadioDirective&#45;&gt;HlmRadioGroupModule -->
<g id="edge1" class="edge">
<title>HlmRadioDirective&#45;&gt;HlmRadioGroupModule</title>
<path fill="none" stroke="black" d="M502.82,-122.02C502.82,-139.37 502.82,-163 502.82,-163 502.82,-163 405.89,-163 405.89,-163"/>
<polygon fill="black" stroke="black" points="405.89,-159.5 395.89,-163 405.89,-166.5 405.89,-159.5"/>
</g>
<!-- HlmRadioGroupDirective -->
<g id="node2" class="node">
<title>HlmRadioGroupDirective</title>
<polygon fill="#8dd3c7" stroke="black" points="400.18,-122 397.18,-126 376.18,-126 373.18,-122 237.82,-122 237.82,-86 400.18,-86 400.18,-122"/>
<text text-anchor="middle" x="319" y="-99.8" font-family="Times,serif" font-size="14.00">HlmRadioGroupDirective</text>
</g>
<!-- HlmRadioGroupDirective&#45;&gt;HlmRadioGroupModule -->
<g id="edge2" class="edge">
<title>HlmRadioGroupDirective&#45;&gt;HlmRadioGroupModule</title>
<path fill="none" stroke="black" d="M319,-122.11C319,-122.11 319,-140.99 319,-140.99"/>
<polygon fill="black" stroke="black" points="315.5,-140.99 319,-150.99 322.5,-140.99 315.5,-140.99"/>
</g>
<!-- HlmRadioIndicatorComponent -->
<g id="node3" class="node">
<title>HlmRadioIndicatorComponent</title>
<polygon fill="#8dd3c7" stroke="black" points="220.19,-122 217.19,-126 196.19,-126 193.19,-122 29.81,-122 29.81,-86 220.19,-86 220.19,-122"/>
<text text-anchor="middle" x="125" y="-99.8" font-family="Times,serif" font-size="14.00">HlmRadioIndicatorComponent</text>
</g>
<!-- HlmRadioIndicatorComponent&#45;&gt;HlmRadioGroupModule -->
<g id="edge3" class="edge">
<title>HlmRadioIndicatorComponent&#45;&gt;HlmRadioGroupModule</title>
<path fill="none" stroke="black" d="M155.2,-122.02C155.2,-139.37 155.2,-163 155.2,-163 155.2,-163 231.9,-163 231.9,-163"/>
<polygon fill="black" stroke="black" points="231.9,-166.5 241.9,-163 231.9,-159.5 231.9,-166.5"/>
</g>
<!-- HlmRadioDirective  -->
<g id="node5" class="node">
<title>HlmRadioDirective </title>
<polygon fill="#fb8072" stroke="black" points="549.91,-252 420.09,-252 420.09,-216 549.91,-216 549.91,-252"/>
<text text-anchor="middle" x="485" y="-229.8" font-family="Times,serif" font-size="14.00">HlmRadioDirective </text>
</g>
<!-- HlmRadioGroupModule&#45;&gt;HlmRadioDirective  -->
<g id="edge4" class="edge">
<title>HlmRadioGroupModule&#45;&gt;HlmRadioDirective </title>
<path fill="none" stroke="black" stroke-dasharray="5,2" d="M396.05,-175C429.61,-175 461.43,-175 461.43,-175 461.43,-175 461.43,-205.98 461.43,-205.98"/>
<polygon fill="black" stroke="black" points="457.93,-205.98 461.43,-215.98 464.93,-205.98 457.93,-205.98"/>
</g>
<!-- HlmRadioGroupDirective  -->
<g id="node6" class="node">
<title>HlmRadioGroupDirective </title>
<polygon fill="#fb8072" stroke="black" points="401.68,-252 236.32,-252 236.32,-216 401.68,-216 401.68,-252"/>
<text text-anchor="middle" x="319" y="-229.8" font-family="Times,serif" font-size="14.00">HlmRadioGroupDirective </text>
</g>
<!-- HlmRadioGroupModule&#45;&gt;HlmRadioGroupDirective  -->
<g id="edge5" class="edge">
<title>HlmRadioGroupModule&#45;&gt;HlmRadioGroupDirective </title>
<path fill="none" stroke="black" stroke-dasharray="5,2" d="M319,-187.11C319,-187.11 319,-205.99 319,-205.99"/>
<polygon fill="black" stroke="black" points="315.5,-205.99 319,-215.99 322.5,-205.99 315.5,-205.99"/>
</g>
<!-- HlmRadioIndicatorComponent  -->
<g id="node7" class="node">
<title>HlmRadioIndicatorComponent </title>
<polygon fill="#fb8072" stroke="black" points="217.69,-252 24.31,-252 24.31,-216 217.69,-216 217.69,-252"/>
<text text-anchor="middle" x="121" y="-229.8" font-family="Times,serif" font-size="14.00">HlmRadioIndicatorComponent </text>
</g>
<!-- HlmRadioGroupModule&#45;&gt;HlmRadioIndicatorComponent  -->
<g id="edge6" class="edge">
<title>HlmRadioGroupModule&#45;&gt;HlmRadioIndicatorComponent </title>
<path fill="none" stroke="black" stroke-dasharray="5,2" d="M242.33,-175C176.64,-175 92.55,-175 92.55,-175 92.55,-175 92.55,-205.98 92.55,-205.98"/>
<polygon fill="black" stroke="black" points="89.05,-205.98 92.55,-215.98 96.05,-205.98 89.05,-205.98"/>
</g>
</g>
</svg>
